<?xml version="1.0" encoding="UTF-8" standalone="no"?>
<!DOCTYPE svg PUBLIC "-//W3C//DTD SVG 1.1//EN" "http://www.w3.org/Graphics/SVG/1.1/DTD/svg11.dtd">
<svg width="100%" height="100%" viewBox="0 0 514 57" version="1.1" xmlns="http://www.w3.org/2000/svg" xmlns:xlink="http://www.w3.org/1999/xlink" xml:space="preserve" xmlns:serif="http://www.serif.com/" style="fill-rule:evenodd;clip-rule:evenodd;stroke-linecap:round;stroke-linejoin:round;stroke-miterlimit:1.5;">
    <g id="Artboard1" transform="matrix(0.97235,0,0,0.920799,7.90418,0.4604)">
        <rect x="-8.129" y="-0.5" width="527.652" height="61.403" style="fill:none;"/>
        <g transform="matrix(1.02844,0,0,1.08601,-13.6757,-4.674)">
            <g>
                <g transform="matrix(0.674179,0,0,0.227115,-387.781,-29.9647)">
                    <path d="M699.677,148.859L699.677,385.763" style="fill:none;stroke:rgb(76,203,166);stroke-width:1.99px;"/>
                </g>
                <g transform="matrix(2.33644,-0.626048,0.626048,2.33644,-9.65245,20.4362)">
                    <path d="M19.99,6.409C17.202,4.15 16.651,3.766 15.485,3.611C15.485,3.611 13.579,3.305 11.548,4.993C11.005,5.445 10.542,6.193 10.154,7.083C11.518,7.041 16.008,7.19 13.18,11.271C9.906,15.997 4.307,16.938 2.679,16.708C2.522,16.71 2.363,16.69 2.205,16.632C0.962,16.163 5.523,18.505 10.855,19.304C14.886,19.904 18.243,19.118 20.425,17.097C22.521,15.159 22.618,14.021 22.863,13.339C24.808,12.073 26.641,8.697 26.486,8.499C26.267,8.219 23.991,9.644 19.99,6.409ZM8.916,11.359C10.689,9.132 11.077,7.622 9.974,7.767C9.974,7.767 9.717,9.115 7.633,11.333C6.45,12.596 3.782,14.846 2.26,16.254C1.531,16.929 7.716,12.87 8.916,11.359Z" style="fill:rgb(76,203,166);fill-rule:nonzero;"/>
                </g>
                <g transform="matrix(2.33644,-0.626048,0.626048,2.33644,-9.65245,20.4362)">
                    <path d="M27.979,5.182C27.827,4.867 26.897,5.544 24.859,4.106C24.116,3.583 22.645,1.963 21.282,1.916C19.259,1.849 18.539,2.766 18.219,3.377C17.715,4.344 21.338,6.739 22.142,7.139C24.351,8.241 25.909,8.216 26.472,7.891C26.817,7.693 28.133,5.498 27.979,5.182ZM20.024,4.47C19.886,4.294 19.781,3.335 19.977,3.151C20.172,2.967 21.149,2.894 21.29,3.019C21.439,3.15 21.549,4.253 21.44,4.377C21.337,4.497 20.161,4.645 20.024,4.47ZM22.708,6.461C22.496,6.186 22.355,5.362 22.455,5.151C22.556,4.94 23.685,4.844 23.835,4.948C23.983,5.052 24.196,6.049 24.02,6.198C23.712,6.461 23.094,6.646 22.708,6.461ZM25.515,7.615C25.347,7.48 25.142,6.908 25.147,6.6C25.152,6.403 26.219,6.052 26.368,6.16C26.597,6.328 26.697,7.185 26.599,7.341C26.501,7.497 25.681,7.751 25.515,7.615Z" style="fill:rgb(76,203,166);fill-rule:nonzero;"/>
                </g>
                <g transform="matrix(2.33644,-0.626048,0.626048,2.33644,-9.65245,20.4362)">
                    <path d="M28.897,1.381C28.897,1.381 28.808,1.192 26.599,1.13C24.393,1.071 24.006,2.17 24.006,2.17C24.119,3.39 26.851,4.878 27.902,4.454C28.954,4.03 28.897,1.381 28.897,1.381Z" style="fill:rgb(76,203,166);fill-rule:nonzero;"/>
                </g>
                <g transform="matrix(0.25756,0,0,0.25756,25.0361,-28.1517)">
                    <g transform="matrix(1,0,0,1,304.152,299.061)">
                        <g>
                            <g transform="matrix(204.018,0,0,204.018,0,0)">
                                <path d="M0.06,-0.019C0.06,-0.009 0.069,0 0.079,0L0.162,0C0.177,0 0.183,-0.008 0.183,-0.019L0.183,-0.231C0.193,-0.272 0.224,-0.302 0.27,-0.302C0.318,-0.302 0.349,-0.267 0.349,-0.212L0.349,-0.019C0.349,-0.009 0.357,0 0.368,0L0.449,0C0.459,0 0.468,-0.009 0.468,-0.019L0.468,-0.211C0.468,-0.312 0.416,-0.41 0.289,-0.41C0.242,-0.41 0.203,-0.392 0.183,-0.377L0.183,-0.681C0.183,-0.691 0.174,-0.7 0.164,-0.7L0.079,-0.7C0.069,-0.7 0.06,-0.691 0.06,-0.681L0.06,-0.019Z" style="fill:rgb(41,48,95);fill-rule:nonzero;"/>
                            </g>
                            <g transform="matrix(204.018,0,0,204.018,106.089,0)">
                                <path d="M0.029,-0.201C0.029,-0.086 0.121,0.01 0.234,0.01C0.347,0.01 0.439,-0.086 0.439,-0.201C0.439,-0.314 0.347,-0.41 0.234,-0.41C0.121,-0.41 0.029,-0.314 0.029,-0.201ZM0.138,-0.201C0.138,-0.257 0.18,-0.302 0.234,-0.302C0.287,-0.302 0.33,-0.257 0.33,-0.201C0.33,-0.144 0.287,-0.098 0.234,-0.098C0.18,-0.098 0.138,-0.144 0.138,-0.201Z" style="fill:rgb(41,48,95);fill-rule:nonzero;"/>
                            </g>
                            <g transform="matrix(204.018,0,0,204.018,201.57,0)">
                                <path d="M0.081,-0.119C0.081,-0.038 0.115,0.01 0.192,0.01C0.241,0.01 0.306,-0.013 0.311,-0.016C0.321,-0.02 0.326,-0.03 0.322,-0.04L0.302,-0.103C0.299,-0.113 0.291,-0.118 0.28,-0.114C0.269,-0.11 0.248,-0.103 0.231,-0.103C0.215,-0.103 0.2,-0.107 0.2,-0.135L0.2,-0.295L0.288,-0.295C0.299,-0.295 0.307,-0.304 0.307,-0.314L0.307,-0.381C0.307,-0.392 0.299,-0.4 0.288,-0.4L0.2,-0.4L0.2,-0.512C0.2,-0.522 0.192,-0.531 0.182,-0.531L0.1,-0.53C0.09,-0.53 0.081,-0.521 0.081,-0.511L0.081,-0.4L0.047,-0.4C0.037,-0.4 0.029,-0.392 0.029,-0.381L0.029,-0.314C0.029,-0.304 0.037,-0.295 0.047,-0.295L0.081,-0.295L0.081,-0.119Z" style="fill:rgb(41,48,95);fill-rule:nonzero;"/>
                            </g>
                            <g transform="matrix(204.018,0,0,204.018,271.956,0)">
                                <path d="M0.03,-0.2C0.03,-0.085 0.115,0.01 0.235,0.01C0.3,0.01 0.351,-0.014 0.384,-0.045C0.394,-0.053 0.392,-0.064 0.385,-0.071L0.344,-0.118C0.337,-0.126 0.328,-0.124 0.318,-0.118C0.3,-0.105 0.271,-0.093 0.24,-0.093C0.182,-0.093 0.147,-0.139 0.144,-0.18L0.4,-0.18C0.409,-0.18 0.418,-0.187 0.419,-0.197C0.42,-0.204 0.421,-0.217 0.421,-0.224C0.421,-0.332 0.337,-0.41 0.234,-0.41C0.115,-0.41 0.03,-0.313 0.03,-0.2ZM0.153,-0.25C0.158,-0.288 0.191,-0.318 0.231,-0.318C0.269,-0.318 0.301,-0.287 0.304,-0.25L0.153,-0.25Z" style="fill:rgb(41,48,95);fill-rule:nonzero;"/>
                            </g>
                            <g transform="matrix(204.018,0,0,204.018,362.744,0)">
                                <path d="M0.06,-0.019C0.06,-0.009 0.069,0 0.079,0L0.163,0C0.173,0 0.182,-0.009 0.182,-0.019L0.182,-0.681C0.182,-0.691 0.173,-0.7 0.163,-0.7L0.079,-0.7C0.069,-0.7 0.06,-0.691 0.06,-0.681L0.06,-0.019Z" style="fill:rgb(41,48,95);fill-rule:nonzero;"/>
                            </g>
                            <g transform="matrix(204.018,0,0,204.018,412.116,0)">
                                <path d="M0.03,-0.2C0.03,-0.085 0.115,0.01 0.235,0.01C0.3,0.01 0.351,-0.014 0.384,-0.045C0.394,-0.053 0.392,-0.064 0.385,-0.071L0.344,-0.118C0.337,-0.126 0.328,-0.124 0.318,-0.118C0.3,-0.105 0.271,-0.093 0.24,-0.093C0.182,-0.093 0.147,-0.139 0.144,-0.18L0.4,-0.18C0.409,-0.18 0.418,-0.187 0.419,-0.197C0.42,-0.204 0.421,-0.217 0.421,-0.224C0.421,-0.332 0.337,-0.41 0.234,-0.41C0.115,-0.41 0.03,-0.313 0.03,-0.2ZM0.153,-0.25C0.158,-0.288 0.191,-0.318 0.231,-0.318C0.269,-0.318 0.301,-0.287 0.304,-0.25L0.153,-0.25Z" style="fill:rgb(41,48,95);fill-rule:nonzero;"/>
                            </g>
                            <g transform="matrix(204.018,0,0,204.018,502.904,0)">
                                <path d="M0.044,-0.027C0.065,-0.011 0.111,0.01 0.177,0.01C0.278,0.01 0.336,-0.046 0.336,-0.112C0.336,-0.19 0.278,-0.223 0.201,-0.253C0.164,-0.268 0.146,-0.274 0.146,-0.292C0.146,-0.305 0.156,-0.315 0.18,-0.315C0.218,-0.315 0.263,-0.294 0.263,-0.294C0.271,-0.291 0.282,-0.292 0.287,-0.301L0.312,-0.352C0.317,-0.362 0.312,-0.373 0.303,-0.379C0.282,-0.393 0.239,-0.41 0.18,-0.41C0.078,-0.41 0.033,-0.353 0.033,-0.292C0.033,-0.231 0.069,-0.19 0.146,-0.16C0.199,-0.139 0.213,-0.128 0.213,-0.11C0.213,-0.093 0.199,-0.085 0.179,-0.085C0.133,-0.085 0.088,-0.109 0.088,-0.109C0.079,-0.114 0.069,-0.112 0.065,-0.102L0.038,-0.048C0.034,-0.04 0.038,-0.032 0.044,-0.027Z" style="fill:rgb(41,48,95);fill-rule:nonzero;"/>
                            </g>
                        </g>
                    </g>
                    <g transform="matrix(1,0,0,1,926.408,299.061)">
                        <g>
                            <g transform="matrix(204.018,0,0,204.018,0,0)">
                                <path d="M0.046,-0.2C0.046,-0.079 0.143,0.01 0.256,0.01C0.339,0.01 0.398,-0.043 0.413,-0.067C0.417,-0.073 0.415,-0.078 0.41,-0.083L0.399,-0.093C0.393,-0.099 0.387,-0.099 0.38,-0.091C0.369,-0.079 0.33,-0.032 0.255,-0.032C0.166,-0.032 0.091,-0.104 0.091,-0.201C0.091,-0.296 0.165,-0.367 0.256,-0.367C0.319,-0.367 0.361,-0.332 0.371,-0.321C0.377,-0.315 0.385,-0.312 0.392,-0.319L0.402,-0.329C0.408,-0.334 0.409,-0.341 0.404,-0.347C0.386,-0.37 0.334,-0.41 0.256,-0.41C0.143,-0.41 0.046,-0.32 0.046,-0.2Z" style="fill:rgb(41,48,95);fill-rule:nonzero;"/>
                            </g>
                            <g transform="matrix(204.018,0,0,204.018,93.6443,0)">
                                <path d="M0.046,-0.201C0.046,-0.084 0.134,0.01 0.247,0.01C0.359,0.01 0.448,-0.084 0.448,-0.201C0.448,-0.315 0.359,-0.41 0.247,-0.41C0.134,-0.41 0.046,-0.315 0.046,-0.201ZM0.089,-0.201C0.089,-0.293 0.158,-0.368 0.247,-0.368C0.335,-0.368 0.404,-0.293 0.404,-0.201C0.404,-0.106 0.335,-0.031 0.247,-0.031C0.158,-0.031 0.089,-0.106 0.089,-0.201Z" style="fill:rgb(41,48,95);fill-rule:nonzero;"/>
                            </g>
                            <g transform="matrix(204.018,0,0,204.018,194.429,0)">
                                <path d="M0.076,-0.013C0.076,-0.006 0.08,0 0.087,0L0.106,0C0.115,0 0.119,-0.005 0.119,-0.013L0.119,-0.298C0.123,-0.303 0.18,-0.367 0.262,-0.367C0.338,-0.367 0.381,-0.319 0.381,-0.227L0.381,-0.013C0.381,-0.006 0.387,0 0.394,0L0.412,0C0.419,0 0.425,-0.006 0.425,-0.013L0.425,-0.227C0.425,-0.339 0.376,-0.41 0.264,-0.41C0.184,-0.41 0.129,-0.361 0.116,-0.347L0.112,-0.39C0.111,-0.396 0.107,-0.4 0.1,-0.4L0.09,-0.4C0.082,-0.4 0.076,-0.394 0.076,-0.387L0.076,-0.013Z" style="fill:rgb(41,48,95);fill-rule:nonzero;"/>
                            </g>
                            <g transform="matrix(204.018,0,0,204.018,339.69,0)">
                                <path d="M0.047,-0.201C0.047,-0.084 0.122,0.01 0.244,0.01C0.306,0.01 0.369,-0.017 0.389,-0.037C0.395,-0.043 0.396,-0.049 0.393,-0.053L0.383,-0.067C0.378,-0.074 0.374,-0.073 0.365,-0.067C0.341,-0.051 0.3,-0.03 0.247,-0.03C0.157,-0.03 0.095,-0.102 0.091,-0.188L0.41,-0.188C0.425,-0.188 0.425,-0.211 0.425,-0.227C0.425,-0.333 0.349,-0.41 0.244,-0.41C0.122,-0.41 0.047,-0.315 0.047,-0.201ZM0.092,-0.224C0.097,-0.306 0.156,-0.37 0.244,-0.37C0.334,-0.37 0.381,-0.302 0.381,-0.224L0.092,-0.224Z" style="fill:rgb(41,48,95);fill-rule:nonzero;"/>
                            </g>
                            <g transform="matrix(204.018,0,0,204.018,434.966,0)">
                                <path d="M0.076,-0.013C0.076,-0.006 0.08,0 0.087,0L0.106,0C0.115,0 0.119,-0.005 0.119,-0.013L0.119,-0.298C0.123,-0.303 0.18,-0.367 0.262,-0.367C0.338,-0.367 0.381,-0.319 0.381,-0.227L0.381,-0.013C0.381,-0.006 0.387,0 0.394,0L0.412,0C0.419,0 0.425,-0.006 0.425,-0.013L0.425,-0.227C0.425,-0.339 0.376,-0.41 0.264,-0.41C0.184,-0.41 0.129,-0.361 0.116,-0.347L0.112,-0.39C0.111,-0.396 0.107,-0.4 0.1,-0.4L0.09,-0.4C0.082,-0.4 0.076,-0.394 0.076,-0.387L0.076,-0.013Z" style="fill:rgb(41,48,95);fill-rule:nonzero;"/>
                            </g>
                            <g transform="matrix(204.018,0,0,204.018,535.955,0)">
                                <path d="M0.046,-0.2C0.046,-0.079 0.143,0.01 0.256,0.01C0.339,0.01 0.398,-0.043 0.413,-0.067C0.417,-0.073 0.415,-0.078 0.41,-0.083L0.399,-0.093C0.393,-0.099 0.387,-0.099 0.38,-0.091C0.369,-0.079 0.33,-0.032 0.255,-0.032C0.166,-0.032 0.091,-0.104 0.091,-0.201C0.091,-0.296 0.165,-0.367 0.256,-0.367C0.319,-0.367 0.361,-0.332 0.371,-0.321C0.377,-0.315 0.385,-0.312 0.392,-0.319L0.402,-0.329C0.408,-0.334 0.409,-0.341 0.404,-0.347C0.386,-0.37 0.334,-0.41 0.256,-0.41C0.143,-0.41 0.046,-0.32 0.046,-0.2Z" style="fill:rgb(41,48,95);fill-rule:nonzero;"/>
                            </g>
                            <g transform="matrix(204.018,0,0,204.018,629.6,0)">
                                <path d="M0.044,-0.123C0.044,-0.041 0.101,0.01 0.175,0.01C0.239,0.01 0.288,-0.023 0.314,-0.047L0.318,-0.011C0.32,-0.004 0.323,0 0.33,0L0.342,0C0.349,0 0.355,-0.006 0.355,-0.013L0.355,-0.235C0.355,-0.337 0.35,-0.41 0.228,-0.41C0.145,-0.41 0.094,-0.382 0.091,-0.38C0.086,-0.378 0.082,-0.374 0.085,-0.365L0.09,-0.353C0.092,-0.346 0.097,-0.342 0.105,-0.345C0.114,-0.348 0.159,-0.372 0.225,-0.372C0.304,-0.372 0.313,-0.328 0.313,-0.24C0.302,-0.244 0.258,-0.258 0.212,-0.258C0.107,-0.258 0.044,-0.2 0.044,-0.123L0.044,-0.123ZM0.085,-0.124C0.085,-0.183 0.136,-0.222 0.212,-0.222C0.26,-0.222 0.3,-0.207 0.313,-0.201L0.313,-0.091C0.294,-0.066 0.241,-0.029 0.18,-0.029C0.125,-0.029 0.085,-0.066 0.085,-0.124L0.085,-0.124Z" style="fill:rgb(41,48,95);fill-rule:nonzero;"/>
                            </g>
                            <g transform="matrix(204.018,0,0,204.018,716.715,0)">
                                <path d="M0.076,-0.013C0.076,-0.006 0.08,0 0.087,0L0.106,0C0.115,0 0.119,-0.005 0.119,-0.013L0.119,-0.298C0.123,-0.303 0.18,-0.367 0.262,-0.367C0.338,-0.367 0.381,-0.319 0.381,-0.227L0.381,-0.013C0.381,-0.006 0.387,0 0.394,0L0.412,0C0.419,0 0.425,-0.006 0.425,-0.013L0.425,-0.227C0.425,-0.339 0.376,-0.41 0.264,-0.41C0.184,-0.41 0.129,-0.361 0.116,-0.347L0.112,-0.39C0.111,-0.396 0.107,-0.4 0.1,-0.4L0.09,-0.4C0.082,-0.4 0.076,-0.394 0.076,-0.387L0.076,-0.013Z" style="fill:rgb(41,48,95);fill-rule:nonzero;"/>
                            </g>
                            <g transform="matrix(204.018,0,0,204.018,817.704,0)">
                                <path d="M0.093,-0.103C0.093,-0.039 0.1,0.01 0.183,0.01C0.24,0.01 0.284,-0.015 0.299,-0.027C0.305,-0.031 0.306,-0.037 0.302,-0.044L0.295,-0.056C0.292,-0.061 0.288,-0.065 0.279,-0.06C0.266,-0.052 0.223,-0.033 0.188,-0.033C0.141,-0.033 0.136,-0.059 0.136,-0.106L0.136,-0.361L0.275,-0.361C0.283,-0.361 0.288,-0.366 0.288,-0.374L0.288,-0.387C0.288,-0.394 0.283,-0.4 0.275,-0.4L0.136,-0.4L0.136,-0.51C0.136,-0.517 0.13,-0.523 0.123,-0.523L0.106,-0.522C0.099,-0.522 0.093,-0.517 0.093,-0.509L0.093,-0.4L0.046,-0.4C0.039,-0.4 0.034,-0.397 0.034,-0.39L0.034,-0.374C0.034,-0.366 0.036,-0.361 0.046,-0.361L0.093,-0.361L0.093,-0.103Z" style="fill:rgb(41,48,95);fill-rule:nonzero;"/>
                            </g>
                            <g transform="matrix(204.018,0,0,204.018,884.826,0)">
                                <path d="M0.046,-0.201C0.046,-0.084 0.134,0.01 0.247,0.01C0.359,0.01 0.448,-0.084 0.448,-0.201C0.448,-0.315 0.359,-0.41 0.247,-0.41C0.134,-0.41 0.046,-0.315 0.046,-0.201ZM0.089,-0.201C0.089,-0.293 0.158,-0.368 0.247,-0.368C0.335,-0.368 0.404,-0.293 0.404,-0.201C0.404,-0.106 0.335,-0.031 0.247,-0.031C0.158,-0.031 0.089,-0.106 0.089,-0.201Z" style="fill:rgb(41,48,95);fill-rule:nonzero;"/>
                            </g>
                        </g>
                    </g>
                </g>
            </g>
        </g>
    </g>
</svg>
