<?xml version="1.0" encoding="UTF-8" standalone="no"?>
<!DOCTYPE svg PUBLIC "-//W3C//DTD SVG 1.1//EN" "http://www.w3.org/Graphics/SVG/1.1/DTD/svg11.dtd">
<svg width="100%" height="100%" viewBox="0 0 514 57" version="1.1" xmlns="http://www.w3.org/2000/svg" xmlns:xlink="http://www.w3.org/1999/xlink" xml:space="preserve" xmlns:serif="http://www.serif.com/" style="fill-rule:evenodd;clip-rule:evenodd;stroke-linecap:round;stroke-linejoin:round;stroke-miterlimit:1.5;">
    <g id="Artboard1" transform="matrix(0.97235,0,0,0.920799,7.90418,0.4604)">
        <rect x="-8.129" y="-0.5" width="527.652" height="61.403" style="fill:none;"/>
        <clipPath id="_clip1">
            <rect x="-8.129" y="-0.5" width="527.652" height="61.403"/>
        </clipPath>
        <g clip-path="url(#_clip1)">
            <g transform="matrix(1.02844,0,0,1.08601,-13.6757,-4.674)">
                <g transform="matrix(0.674179,0,0,0.227115,-387.781,-29.9647)">
                    <path d="M699.677,148.859L699.677,385.763" style="fill:none;stroke:white;stroke-width:1.99px;"/>
                </g>
                <g transform="matrix(2.33644,-0.626048,0.626048,2.33644,-9.65245,20.4362)">
                    <path d="M19.99,6.409C17.202,4.15 16.651,3.766 15.485,3.611C15.485,3.611 13.579,3.305 11.548,4.993C11.005,5.445 10.542,6.193 10.154,7.083C11.518,7.041 16.008,7.19 13.18,11.271C9.906,15.997 4.307,16.938 2.679,16.708C2.522,16.71 2.363,16.69 2.205,16.632C0.962,16.163 5.523,18.505 10.855,19.304C14.886,19.904 18.243,19.118 20.425,17.097C22.521,15.159 22.618,14.021 22.863,13.339C24.808,12.073 26.641,8.697 26.486,8.499C26.267,8.219 23.991,9.644 19.99,6.409ZM8.916,11.359C10.689,9.132 11.077,7.622 9.974,7.767C9.974,7.767 9.717,9.115 7.633,11.333C6.45,12.596 3.782,14.846 2.26,16.254C1.531,16.929 7.716,12.87 8.916,11.359Z" style="fill:white;fill-rule:nonzero;"/>
                </g>
                <g transform="matrix(2.33644,-0.626048,0.626048,2.33644,-9.65245,20.4362)">
                    <path d="M27.979,5.182C27.827,4.867 26.897,5.544 24.859,4.106C24.116,3.583 22.645,1.963 21.282,1.916C19.259,1.849 18.539,2.766 18.219,3.377C17.715,4.344 21.338,6.739 22.142,7.139C24.351,8.241 25.909,8.216 26.472,7.891C26.817,7.693 28.133,5.498 27.979,5.182ZM20.024,4.47C19.886,4.294 19.781,3.335 19.977,3.151C20.172,2.967 21.149,2.894 21.29,3.019C21.439,3.15 21.549,4.253 21.44,4.377C21.337,4.497 20.161,4.645 20.024,4.47ZM22.708,6.461C22.496,6.186 22.355,5.362 22.455,5.151C22.556,4.94 23.685,4.844 23.835,4.948C23.983,5.052 24.196,6.049 24.02,6.198C23.712,6.461 23.094,6.646 22.708,6.461ZM25.515,7.615C25.347,7.48 25.142,6.908 25.147,6.6C25.152,6.403 26.219,6.052 26.368,6.16C26.597,6.328 26.697,7.185 26.599,7.341C26.501,7.497 25.681,7.751 25.515,7.615Z" style="fill:white;fill-rule:nonzero;"/>
                </g>
                <g transform="matrix(2.33644,-0.626048,0.626048,2.33644,-9.65245,20.4362)">
                    <path d="M28.897,1.381C28.897,1.381 28.808,1.192 26.599,1.13C24.393,1.071 24.006,2.17 24.006,2.17C24.119,3.39 26.851,4.878 27.902,4.454C28.954,4.03 28.897,1.381 28.897,1.381Z" style="fill:white;fill-rule:nonzero;"/>
                </g>
                <g transform="matrix(0.25756,0,0,0.25756,25.0361,-28.1517)">
                    <text x="304.152px" y="299.061px" style="font-family:'BrandonGrotesque-Bold', 'Brandon Grotesque', sans-serif;font-weight:450;font-size:204.018px;fill:white;">hoteles</text>
                    <text x="926.408px" y="299.061px" style="font-family:'BrandonGrotesque-Light', 'Brandon Grotesque', sans-serif;font-weight:330;font-size:204.018px;fill:white;">con encanto</text>
                </g>
            </g>
        </g>
    </g>
</svg>
