<?xml version="1.0" encoding="UTF-8" standalone="no"?>
<!DOCTYPE svg PUBLIC "-//W3C//DTD SVG 1.1//EN" "http://www.w3.org/Graphics/SVG/1.1/DTD/svg11.dtd">
<svg width="100%" height="100%" viewBox="0 0 236 25" version="1.1" xmlns="http://www.w3.org/2000/svg" xmlns:xlink="http://www.w3.org/1999/xlink" xml:space="preserve" xmlns:serif="http://www.serif.com/" style="fill-rule:evenodd;clip-rule:evenodd;stroke-linejoin:round;stroke-miterlimit:2;">
    <g transform="matrix(1,0,0,1,-326.736,-6039.85)">
        <g transform="matrix(1,0,0,9.16524,0,0)">
            <g transform="matrix(1.09523,0,0,-0.119499,-420.407,613.538)">
                <path d="M682.952,-383.208L700.585,-392.953C706.298,-396.11 712.621,-397.688 718.944,-397.688C725.267,-397.688 731.59,-396.11 737.303,-392.953C737.303,-392.953 737.303,-392.953 737.303,-392.953C742.564,-390.046 748.388,-388.592 754.211,-388.592C760.034,-388.592 765.858,-390.046 771.119,-392.953C771.119,-392.953 771.119,-392.953 771.119,-392.953C776.832,-396.11 783.155,-397.688 789.478,-397.688C795.801,-397.688 802.124,-396.11 807.837,-392.953C807.837,-392.953 807.837,-392.953 807.837,-392.953C813.098,-390.046 818.922,-388.592 824.745,-388.592C830.568,-388.592 836.392,-390.046 841.653,-392.953C841.653,-392.953 841.653,-392.953 841.653,-392.953C847.366,-396.11 853.689,-397.688 860.012,-397.688C866.335,-397.688 872.658,-396.11 878.371,-392.953C878.371,-392.953 896.005,-383.208 896.005,-383.208C896.729,-382.808 896.992,-381.895 896.592,-381.17C896.191,-380.445 895.278,-380.182 894.554,-380.583L876.92,-390.328C871.659,-393.235 865.835,-394.688 860.012,-394.688C854.189,-394.688 848.365,-393.235 843.104,-390.328C843.104,-390.328 843.104,-390.327 843.104,-390.327C837.391,-387.17 831.068,-385.592 824.745,-385.592C818.422,-385.592 812.099,-387.17 806.386,-390.327C806.386,-390.327 806.386,-390.328 806.386,-390.328C801.125,-393.235 795.301,-394.688 789.478,-394.688C783.655,-394.688 777.831,-393.235 772.57,-390.328C772.57,-390.328 772.57,-390.327 772.57,-390.327C766.857,-387.17 760.534,-385.592 754.211,-385.592C747.888,-385.592 741.565,-387.17 735.852,-390.327C735.852,-390.327 735.852,-390.328 735.852,-390.328C730.591,-393.235 724.767,-394.688 718.944,-394.688C713.121,-394.688 707.297,-393.235 702.036,-390.328C702.036,-390.328 684.403,-380.583 684.403,-380.583C683.678,-380.182 682.765,-380.445 682.364,-381.17C681.964,-381.895 682.227,-382.808 682.952,-383.208Z" style="fill:rgb(248,251,50);"/>
            </g>
        </g>
    </g>
</svg>
